<svg width="224" xmlns="http://www.w3.org/2000/svg" height="300" id="screenshot-4e7a2654-0dc2-801f-8008-3985149c4e6a" viewBox="0 0 224 300" xmlns:xlink="http://www.w3.org/1999/xlink" fill="none" version="1.1"><g id="shape-4e7a2654-0dc2-801f-8008-3985149c4e6a"><defs><clipPath id="frame-clip-4e7a2654-0dc2-801f-8008-3985149c4e6a-render-1" class="frame-clip frame-clip-def"><rect rx="0" ry="0" x="0" y="0" width="224" height="300" transform="matrix(1.000000, 0.000000, 0.000000, 1.000000, 0.000000, 0.000000)"/></clipPath></defs><g class="frame-container-wrapper"><g class="frame-container-blur"><g class="frame-container-shadows"><g clip-path="url(#frame-clip-4e7a2654-0dc2-801f-8008-3985149c4e6a-render-1)" fill="none"><g class="fills" id="fills-4e7a2654-0dc2-801f-8008-3985149c4e6a"><rect width="224" height="300" class="frame-background" x="0" transform="matrix(1.000000, 0.000000, 0.000000, 1.000000, 0.000000, 0.000000)" style="fill: rgb(255, 255, 255); fill-opacity: 0;" ry="0" rx="0" y="0"/></g><g class="frame-children"><g id="shape-4e7a2654-0dc2-801f-8008-39857bfe4072" width="16" height="16" rx="0" ry="0" style="fill: rgb(0, 0, 0);"><g id="shape-4e7a2654-0dc2-801f-8008-39857bff495e" style="display: none;"><g class="fills" id="fills-4e7a2654-0dc2-801f-8008-39857bff495e"><rect width="255" height="255" x="-16" transform="matrix(1.000000, 0.000000, 0.000000, 1.000000, 0.000000, 0.000000)" style="fill: none;" ry="0" fill="none" rx="0" y="23"/></g></g><g id="shape-4e7a2654-0dc2-801f-8008-39857bfff319"><g class="fills" id="fills-4e7a2654-0dc2-801f-8008-39857bfff319"><path d="M211.109375,170.421875L211.109375,118.625L111.5,66.828125L11.890625,118.625L111.5,170.421875L163.296875,146.515625L163.296875,202.296875C163.296875,218.234375,139.390625,234.171875,111.5,234.171875C83.609375,234.171875,59.703125,218.234375,59.703125,202.296875L59.703125,146.515625" fill="none" stroke-linecap="round" stroke-linejoin="round" style="fill: none;"/></g><g fill="none" stroke-linecap="round" stroke-linejoin="round" id="strokes-e946af6b-5d1d-8044-8008-3985f8bd5ebc-4e7a2654-0dc2-801f-8008-39857bfff319" class="strokes"><g class="stroke-shape"><path d="M211.109375,170.421875L211.109375,118.625L111.5,66.828125L11.890625,118.625L111.5,170.421875L163.296875,146.515625L163.296875,202.296875C163.296875,218.234375,139.390625,234.171875,111.5,234.171875C83.609375,234.171875,59.703125,218.234375,59.703125,202.296875L59.703125,146.515625" style="fill: none; stroke-width: 15; stroke: rgb(111, 206, 176); stroke-opacity: 1;"/></g></g></g></g></g></g></g></g></g></g></svg>