<svg width="224" xmlns="http://www.w3.org/2000/svg" height="300" id="screenshot-d010c6a7-464c-806c-8007-b41bee3c711a" viewBox="0 0 224 300" xmlns:xlink="http://www.w3.org/1999/xlink" fill="none" version="1.1"><g id="shape-d010c6a7-464c-806c-8007-b41bee3c711a"><defs><clipPath id="frame-clip-d010c6a7-464c-806c-8007-b41bee3c711a-render-1" class="frame-clip frame-clip-def"><rect rx="0" ry="0" x="0" y="0" width="224" height="300" transform="matrix(1.000000, 0.000000, 0.000000, 1.000000, 0.000000, 0.000000)"/></clipPath></defs><g class="frame-container-wrapper"><g class="frame-container-blur"><g class="frame-container-shadows"><g clip-path="url(#frame-clip-d010c6a7-464c-806c-8007-b41bee3c711a-render-1)" fill="none"><g class="fills" id="fills-d010c6a7-464c-806c-8007-b41bee3c711a"><rect width="224" height="300" class="frame-background" x="0" transform="matrix(1.000000, 0.000000, 0.000000, 1.000000, 0.000000, 0.000000)" style="fill: rgb(255, 255, 255); fill-opacity: 0;" ry="0" rx="0" y="0"/></g><g class="frame-children"><g id="shape-d010c6a7-464c-806c-8007-b41bff1f9a33" width="16" height="16" rx="0" ry="0" style="fill: rgb(0, 0, 0);"><g id="shape-d010c6a7-464c-806c-8007-b41bff1f9a34" style="display: none;"><g class="fills" id="fills-d010c6a7-464c-806c-8007-b41bff1f9a34"><rect width="305" height="293.91617322651814" x="-40" transform="matrix(1.000000, 0.000000, 0.000000, 1.000000, 0.000000, 0.000000)" style="fill: rgb(177, 178, 181); fill-opacity: 0;" ry="0" fill="none" rx="0" y="23.08382677348186"/></g></g><g id="shape-d010c6a7-464c-806c-8007-b41bff1f9a36"><g class="fills" id="fills-d010c6a7-464c-806c-8007-b41bff1f9a36"><path d="M40.0579833984375,12C20.268310546875,12,4.22503662109375,27.460235595703125,4.22503662109375,46.530792236328125L4.22503662109375,253.715087890625C4.22503662109375,272.78558349609375,20.268310546875,288.24578857421875,40.0579833984375,288.24578857421875L183.3895263671875,288.24578857421875C203.17919921875,288.24578857421875,219.2225341796875,272.78558349609375,219.2225341796875,253.715087890625L219.2225341796875,46.530792236328125C219.2225341796875,27.460235595703125,203.17919921875,12,183.3895263671875,12ZM40.0579833984375,29.265350341796875L183.3895263671875,29.265350341796875C193.2850341796875,29.265350341796875,201.305908203125,36.994903564453125,201.305908203125,46.530792236328125L201.305908203125,253.715087890625C201.305908203125,263.2508544921875,193.2850341796875,270.98040771484375,183.3895263671875,270.98040771484375L40.0579833984375,270.98040771484375C30.16241455078125,270.98040771484375,22.14141845703125,263.2508544921875,22.14141845703125,253.715087890625L22.14141845703125,46.530792236328125C22.14141845703125,36.994903564453125,30.16241455078125,29.265350341796875,40.0579833984375,29.265350341796875" style="fill: rgb(111, 206, 176); fill-opacity: 1;"/></g></g><g id="shape-a3ff08ab-f7db-8085-8007-b561352edc5f" width="24" height="24" rx="0" ry="0" style="fill: rgb(0, 0, 0);"><g id="shape-a3ff08ab-f7db-8085-8007-b561352fc03a" style="display: none;"><g class="fills" id="fills-a3ff08ab-f7db-8085-8007-b561352fc03a"><rect width="191" height="191" x="17" transform="matrix(1.000000, 0.000000, 0.000000, 1.000000, 0.000000, 0.000000)" style="fill: none;" ry="0" fill="none" rx="0" y="37"/></g></g><g id="shape-a3ff08ab-f7db-8085-8007-b56135300bd0"><g class="fills" id="fills-a3ff08ab-f7db-8085-8007-b56135300bd0"><path d="M44.85400390625,80.77081298828125L56.79150390625,92.70831298828125L76.6875,72.8125M44.85400390625,128.520751953125L56.79150390625,140.458251953125L76.6875,120.5625M44.85400390625,176.270751953125L56.79150390625,188.208251953125L76.6875,168.3125M104.54150390625,84.75L176.16650390625,84.75M104.54150390625,132.5L176.16650390625,132.5M104.54150390625,180.25L176.16650390625,180.25" fill="none" stroke-linecap="round" stroke-linejoin="round" style="fill: none;"/></g><g fill="none" stroke-linecap="round" stroke-linejoin="round" id="strokes-0ac091db-0e3e-802f-8007-b5616ae759bc-a3ff08ab-f7db-8085-8007-b56135300bd0" class="strokes"><g class="stroke-shape"><path d="M44.85400390625,80.77081298828125L56.79150390625,92.70831298828125L76.6875,72.8125M44.85400390625,128.520751953125L56.79150390625,140.458251953125L76.6875,120.5625M44.85400390625,176.270751953125L56.79150390625,188.208251953125L76.6875,168.3125M104.54150390625,84.75L176.16650390625,84.75M104.54150390625,132.5L176.16650390625,132.5M104.54150390625,180.25L176.16650390625,180.25" style="fill: none; stroke-width: 13; stroke: rgb(111, 206, 176); stroke-opacity: 1;"/></g></g></g></g></g></g></g></g></g></g></g></svg>