<svg width="224" xmlns="http://www.w3.org/2000/svg" height="300" id="screenshot-d010c6a7-464c-806c-8007-b41bee3c711a" viewBox="0 0 224 300" xmlns:xlink="http://www.w3.org/1999/xlink" fill="none" version="1.1"><g id="shape-d010c6a7-464c-806c-8007-b41bee3c711a"><defs><clipPath id="frame-clip-d010c6a7-464c-806c-8007-b41bee3c711a-render-1" class="frame-clip frame-clip-def"><rect rx="0" ry="0" x="0" y="0" width="224" height="300" transform="matrix(1.000000, 0.000000, 0.000000, 1.000000, 0.000000, 0.000000)"/></clipPath></defs><g class="frame-container-wrapper"><g class="frame-container-blur"><g class="frame-container-shadows"><g clip-path="url(#frame-clip-d010c6a7-464c-806c-8007-b41bee3c711a-render-1)" fill="none"><g class="fills" id="fills-d010c6a7-464c-806c-8007-b41bee3c711a"><rect width="224" height="300" class="frame-background" x="0" transform="matrix(1.000000, 0.000000, 0.000000, 1.000000, 0.000000, 0.000000)" style="fill: rgb(255, 255, 255); fill-opacity: 0;" ry="0" rx="0" y="0"/></g><g class="frame-children"><g id="shape-d010c6a7-464c-806c-8007-b41bff1f9a33" width="16" height="16" rx="0" ry="0" style="fill: rgb(0, 0, 0);"><g id="shape-d010c6a7-464c-806c-8007-b41bff1f9a34" style="display: none;"><g class="fills" id="fills-d010c6a7-464c-806c-8007-b41bff1f9a34"><rect width="305" height="293.91617322651814" x="-40" transform="matrix(1.000000, 0.000000, 0.000000, 1.000000, 0.000000, 0.000000)" style="fill: rgb(177, 178, 181); fill-opacity: 0;" ry="0" fill="none" rx="0" y="23.08382677348186"/></g></g><g id="shape-d010c6a7-464c-806c-8007-b41bff1f9a35"><g class="fills" id="fills-d010c6a7-464c-806c-8007-b41bff1f9a35"><path d="M161.8211669921875,114.41851806640625C163.61376953125,116.1419677734375,164.62158203125,118.48187255859375,164.62158203125,120.921630859375C164.62158203125,123.36126708984375,163.61376953125,125.701171875,161.8211669921875,127.4246826171875L104.6336669921875,182.533935546875C102.8453369140625,184.2615966796875,100.417236328125,185.23260498046875,97.885498046875,185.23260498046875C95.353759765625,185.23260498046875,92.9256591796875,184.2615966796875,91.1370849609375,182.533935546875L62.5433349609375,154.9793701171875C58.8165283203125,151.3880615234375,58.8165283203125,145.564453125,62.5433349609375,141.97314453125C66.27001953125,138.382080078125,72.313232421875,138.382080078125,76.0399169921875,141.97314453125L97.885498046875,163.0428466796875L148.3245849609375,114.41851806640625C150.1131591796875,112.69097900390625,152.541259765625,111.7198486328125,155.072998046875,111.7198486328125C157.604736328125,111.7198486328125,160.0328369140625,112.69097900390625,161.8211669921875,114.41851806640625" style="fill: rgb(111, 206, 176); fill-opacity: 1;"/></g></g><g id="shape-d010c6a7-464c-806c-8007-b41bff1f9a36"><g class="fills" id="fills-d010c6a7-464c-806c-8007-b41bff1f9a36"><path d="M40.0579833984375,12C20.268310546875,12,4.22503662109375,27.460235595703125,4.22503662109375,46.530792236328125L4.22503662109375,253.715087890625C4.22503662109375,272.78558349609375,20.268310546875,288.24578857421875,40.0579833984375,288.24578857421875L183.3895263671875,288.24578857421875C203.17919921875,288.24578857421875,219.2225341796875,272.78558349609375,219.2225341796875,253.715087890625L219.2225341796875,46.530792236328125C219.2225341796875,27.460235595703125,203.17919921875,12,183.3895263671875,12ZM40.0579833984375,29.265350341796875L183.3895263671875,29.265350341796875C193.2850341796875,29.265350341796875,201.305908203125,36.994903564453125,201.305908203125,46.530792236328125L201.305908203125,253.715087890625C201.305908203125,263.2508544921875,193.2850341796875,270.98040771484375,183.3895263671875,270.98040771484375L40.0579833984375,270.98040771484375C30.16241455078125,270.98040771484375,22.14141845703125,263.2508544921875,22.14141845703125,253.715087890625L22.14141845703125,46.530792236328125C22.14141845703125,36.994903564453125,30.16241455078125,29.265350341796875,40.0579833984375,29.265350341796875" style="fill: rgb(111, 206, 176); fill-opacity: 1;"/></g></g></g></g></g></g></g></g></g></svg>