<svg width="224" xmlns="http://www.w3.org/2000/svg" height="300" id="screenshot-a3ff08ab-f7db-8085-8007-b55ececdda6f" viewBox="0 0 224 300" xmlns:xlink="http://www.w3.org/1999/xlink" fill="none" version="1.1"><g id="shape-a3ff08ab-f7db-8085-8007-b55ececdda6f"><defs><clipPath id="frame-clip-a3ff08ab-f7db-8085-8007-b55ececdda6f-render-1" class="frame-clip frame-clip-def"><rect rx="0" ry="0" x="0" y="0" width="224" height="300" transform="matrix(1.000000, 0.000000, 0.000000, 1.000000, 0.000000, 0.000000)"/></clipPath></defs><g class="frame-container-wrapper"><g class="frame-container-blur"><g class="frame-container-shadows"><g clip-path="url(#frame-clip-a3ff08ab-f7db-8085-8007-b55ececdda6f-render-1)" fill="none"><g class="fills" id="fills-a3ff08ab-f7db-8085-8007-b55ececdda6f"><rect width="224" height="300" class="frame-background" x="0" transform="matrix(1.000000, 0.000000, 0.000000, 1.000000, 0.000000, 0.000000)" style="fill: rgb(255, 255, 255); fill-opacity: 0;" ry="0" rx="0" y="0"/></g><g class="frame-children"><g id="shape-a3ff08ab-f7db-8085-8007-b55fed550e52" width="24" height="24" rx="0" ry="0" style="fill: rgb(0, 0, 0);"><g id="shape-a3ff08ab-f7db-8085-8007-b55fed561a12" style="display: none;"><g class="fills" id="fills-a3ff08ab-f7db-8085-8007-b55fed561a12"><rect width="260" height="260" x="-5" transform="matrix(1.000000, 0.000000, 0.000000, 1.000000, 0.000000, 0.000000)" style="fill: none;" ry="0" fill="none" rx="0" y="33"/></g></g><g id="shape-a3ff08ab-f7db-8085-8007-b55fed564597" rx="0" ry="0" style="fill: rgb(0, 0, 0);"><g id="shape-a3ff08ab-f7db-8085-8007-b55fed56aa3d"><g class="fills" id="fills-a3ff08ab-f7db-8085-8007-b55fed56aa3d"><path d="M101.888916015625,172.38897705078125L123.555419921875,194.0556640625L166.888916015625,150.72210693359375" fill="none" stroke-linejoin="round" stroke-linecap="round" style="fill: none;"/></g><g fill="none" stroke-linejoin="round" stroke-linecap="round" id="strokes-96471a90-cf85-8016-8007-b560514220d9-a3ff08ab-f7db-8085-8007-b55fed56aa3d" class="strokes"><g class="stroke-shape"><path d="M101.888916015625,172.38897705078125L123.555419921875,194.0556640625L166.888916015625,150.72210693359375" style="fill: none; stroke-width: 15; stroke: rgb(111, 206, 176); stroke-opacity: 1;"/></g></g></g><g id="shape-a3ff08ab-f7db-8085-8007-b55fed56aa3e"><g class="fills" id="fills-a3ff08ab-f7db-8085-8007-b55fed56aa3e"><rect width="151.66666666666697" height="151.66666666666583" x="58.55555555555611" stroke-linejoin="round" transform="matrix(1.000000, 0.000000, 0.000000, 1.000000, 0.000000, 0.000000)" style="fill: none;" ry="2" fill="none" stroke-linecap="round" rx="2" y="96.55555555555588"/></g><g fill="none" stroke-linejoin="round" stroke-linecap="round" id="strokes-96471a90-cf85-8016-8007-b5605142c7a1-a3ff08ab-f7db-8085-8007-b55fed56aa3e" class="strokes"><g class="inner-stroke-shape" transform="matrix(1.000000, 0.000000, 0.000000, 1.000000, 0.000000, 0.000000)"><defs><clipPath id="inner-stroke-render-6-a3ff08ab-f7db-8085-8007-b55fed56aa3e-0"><use href="#stroke-shape-render-6-a3ff08ab-f7db-8085-8007-b55fed56aa3e-0"/></clipPath><rect rx="2" ry="2" x="58.55555555555611" y="96.55555555555588" width="151.66666666666697" height="151.66666666666583" id="stroke-shape-render-6-a3ff08ab-f7db-8085-8007-b55fed56aa3e-0" style="fill: none; stroke-width: 30; stroke: rgb(111, 206, 176); stroke-opacity: 1;"/></defs><use href="#stroke-shape-render-6-a3ff08ab-f7db-8085-8007-b55fed56aa3e-0" clip-path="url('#inner-stroke-render-6-a3ff08ab-f7db-8085-8007-b55fed56aa3e-0')"/></g></g></g><g id="shape-a3ff08ab-f7db-8085-8007-b55fed56c5a5"><g class="fills" id="fills-a3ff08ab-f7db-8085-8007-b55fed56c5a5"><path d="M38.3333740234375,206.33331298828125C26.416748046875,206.33331298828125,16.6666259765625,196.58306884765625,16.6666259765625,184.66668701171875L16.6666259765625,76.33334350585938C16.6666259765625,64.4169921875,26.416748046875,54.666656494140625,38.3333740234375,54.666656494140625L146.6666259765625,54.666656494140625C158.583251953125,54.666656494140625,168.3333740234375,64.4169921875,168.3333740234375,76.33334350585938" fill="none" stroke-linejoin="round" stroke-linecap="round" style="fill: none;"/></g><g fill="none" stroke-linejoin="round" stroke-linecap="round" id="strokes-96471a90-cf85-8016-8007-b5605143a34a-a3ff08ab-f7db-8085-8007-b55fed56c5a5" class="strokes"><g class="stroke-shape"><path d="M38.3333740234375,206.33331298828125C26.416748046875,206.33331298828125,16.6666259765625,196.58306884765625,16.6666259765625,184.66668701171875L16.6666259765625,76.33334350585938C16.6666259765625,64.4169921875,26.416748046875,54.666656494140625,38.3333740234375,54.666656494140625L146.6666259765625,54.666656494140625C158.583251953125,54.666656494140625,168.3333740234375,64.4169921875,168.3333740234375,76.33334350585938" style="fill: none; stroke-width: 15; stroke: rgb(111, 206, 176); stroke-opacity: 1;"/></g></g></g></g></g></g></g></g></g></g></g></svg>