<svg width="224" xmlns="http://www.w3.org/2000/svg" height="300" id="screenshot-d010c6a7-464c-806c-8007-b41a940b7e7c" viewBox="0 0 224 300" xmlns:xlink="http://www.w3.org/1999/xlink" fill="none" version="1.1"><g id="shape-d010c6a7-464c-806c-8007-b41a940b7e7c"><defs><clipPath id="frame-clip-d010c6a7-464c-806c-8007-b41a940b7e7c-render-1" class="frame-clip frame-clip-def"><rect rx="0" ry="0" x="0" y="0" width="224" height="300" transform="matrix(1.000000, 0.000000, 0.000000, 1.000000, 0.000000, 0.000000)"/></clipPath></defs><g class="frame-container-wrapper"><g class="frame-container-blur"><g class="frame-container-shadows"><g clip-path="url(#frame-clip-d010c6a7-464c-806c-8007-b41a940b7e7c-render-1)" fill="none"><g class="fills" id="fills-d010c6a7-464c-806c-8007-b41a940b7e7c"><rect width="224" height="300" class="frame-background" x="0" transform="matrix(1.000000, 0.000000, 0.000000, 1.000000, 0.000000, 0.000000)" style="fill: rgb(255, 255, 255); fill-opacity: 0;" ry="0" rx="0" y="0"/></g><g class="frame-children"><g id="shape-d010c6a7-464c-806c-8007-b41a95b664c7" width="28" height="28" rx="0" ry="0" style="fill: rgb(0, 0, 0);"><g id="shape-d010c6a7-464c-806c-8007-b41a95b664c8" style="display: none;"><g class="fills" id="fills-d010c6a7-464c-806c-8007-b41a95b664c8"><rect width="300" height="299.99999999999994" x="-38" transform="matrix(1.000000, 0.000000, 0.000000, 1.000000, 0.000000, 0.000000)" style="fill: none;" ry="0" fill="none" rx="0" y="5.684341886080802e-14"/></g></g><g id="shape-d010c6a7-464c-806c-8007-b41a95b664c9"><g class="fills" id="fills-d010c6a7-464c-806c-8007-b41a95b664c9"><path d="M45.3306884765625,284.59814453125L178.6693115234375,284.59814453125C204.6624755859375,284.59814453125,217.59405517578125,271.542724609375,217.59405517578125,245.29840087890625L217.59405517578125,54.825103759765625C217.59405517578125,28.708953857421875,204.6624755859375,15.40185546875,178.6693115234375,15.40185546875L45.3306884765625,15.40185546875C19.4664306640625,15.40185546875,6.40594482421875,28.708953857421875,6.40594482421875,54.830413818359375L6.40594482421875,245.29840087890625C6.40594482421875,271.5374755859375,19.4664306640625,284.59814453125,45.3306884765625,284.59814453125M46.331787109375,264.385986328125C33.4000244140625,264.385986328125,26.6181640625,257.4749755859375,26.6181640625,244.92315673828125L26.6181640625,55.205657958984375C26.6181640625,42.776763916015625,33.4000244140625,35.614013671875,46.4605712890625,35.614013671875L177.668212890625,35.614013671875C190.72296142578125,35.614013671875,197.3818359375,42.64794921875,197.3818359375,55.205657958984375L197.3818359375,244.92315673828125C197.3818359375,257.4749755859375,190.72296142578125,264.385986328125,177.7908935546875,264.385986328125ZM64.540771484375,88.09799194335938L159.710693359375,88.09799194335938C164.1033935546875,88.09799194335938,167.49456787109375,84.58438110351562,167.49456787109375,80.19091796875C167.49456787109375,75.92147827148438,164.109130859375,72.658935546875,159.710693359375,72.658935546875L64.540771484375,72.658935546875C59.890869140625,72.658935546875,56.62890625,75.92147827148438,56.62890625,80.19091796875C56.62890625,84.58438110351562,59.8966064453125,88.09799194335938,64.540771484375,88.09799194335938M64.540771484375,131.9195556640625L159.710693359375,131.9195556640625C164.1033935546875,131.9195556640625,167.49456787109375,128.4052734375,167.49456787109375,124.0069580078125C167.49456787109375,119.7430419921875,164.109130859375,116.4747314453125,159.710693359375,116.4747314453125L64.540771484375,116.4747314453125C59.890869140625,116.4747314453125,56.62890625,119.7430419921875,56.62890625,124.0069580078125C56.62890625,128.400146484375,59.8966064453125,131.9195556640625,64.540771484375,131.9195556640625M64.540771484375,175.74127197265625L109.6165771484375,175.74127197265625C114.00885009765625,175.74127197265625,117.4005126953125,172.34991455078125,117.4005126953125,168.08050537109375C117.4005126953125,163.6876220703125,114.00885009765625,160.29644775390625,109.6165771484375,160.29644775390625L64.53558349609375,160.29644775390625C59.885498046875,160.29644775390625,56.6231689453125,163.6876220703125,56.6231689453125,168.08050537109375C56.6231689453125,172.34991455078125,59.890869140625,175.74127197265625,64.53558349609375,175.74127197265625" style="fill: rgb(111, 206, 176); fill-opacity: 1;"/></g></g></g></g></g></g></g></g></g></svg>