<svg width="224" xmlns="http://www.w3.org/2000/svg" height="300" id="screenshot-d010c6a7-464c-806c-8007-b41b34da4832" viewBox="0 0 224 300" xmlns:xlink="http://www.w3.org/1999/xlink" fill="none" version="1.1"><g id="shape-d010c6a7-464c-806c-8007-b41b34da4832"><defs><clipPath id="frame-clip-d010c6a7-464c-806c-8007-b41b34da4832-render-1" class="frame-clip frame-clip-def"><rect rx="0" ry="0" x="0" y="0" width="224" height="300" transform="matrix(1.000000, 0.000000, 0.000000, 1.000000, 0.000000, 0.000000)"/></clipPath></defs><g class="frame-container-wrapper"><g class="frame-container-blur"><g class="frame-container-shadows"><g clip-path="url(#frame-clip-d010c6a7-464c-806c-8007-b41b34da4832-render-1)" fill="none"><g class="fills" id="fills-d010c6a7-464c-806c-8007-b41b34da4832"><rect width="224" height="300" class="frame-background" x="0" transform="matrix(1.000000, 0.000000, 0.000000, 1.000000, 0.000000, 0.000000)" style="fill: rgb(255, 255, 255); fill-opacity: 0;" ry="0" rx="0" y="0"/></g><g class="frame-children"><g id="shape-a3ff08ab-f7db-8085-8007-b562d5840b98" width="24" height="24" rx="0" ry="0" style="fill: rgb(0, 0, 0);"><g id="shape-a3ff08ab-f7db-8085-8007-b562d584f661" style="display: none;"><g class="fills" id="fills-a3ff08ab-f7db-8085-8007-b562d584f661"><rect width="95" height="95" x="116" transform="matrix(1.000000, 0.000000, 0.000000, 1.000000, 0.000000, 0.000000)" style="fill: rgb(111, 206, 176); fill-opacity: 1;" ry="0" fill="none" rx="0" y="116"/></g></g><g id="shape-a3ff08ab-f7db-8085-8007-b562d585062a"><g class="fills" id="fills-a3ff08ab-f7db-8085-8007-b562d585062a"><path d="M159.046875,139.75C152.76171875,139.75,147.66668701171875,144.84503173828125,147.66668701171875,151.13018798828125L147.66668701171875,175.86981201171875C147.66668701171875,182.15496826171875,152.76171875,187.25,159.046875,187.25L173.890625,187.25C177.44525146484375,187.25,180.32293701171875,184.372314453125,180.32293701171875,180.81768798828125L180.32293701171875,165.97393798828125C180.32293701171875,162.4193115234375,177.44525146484375,159.54168701171875,173.890625,159.54168701171875L168.11932373046875,159.54168701171875C165.933349609375,159.54168701171875,164.1610107421875,161.31378173828125,164.1610107421875,163.5C164.1610107421875,165.68621826171875,165.933349609375,167.45831298828125,168.11932373046875,167.45831298828125L172.40625,167.45831298828125L172.40625,179.33331298828125L159.046875,179.33331298828125C157.1339111328125,179.33331298828125,155.58331298828125,177.78277587890625,155.58331298828125,175.86981201171875L155.58331298828125,151.13018798828125C155.58331298828125,149.21844482421875,157.1351318359375,147.66668701171875,159.046875,147.66668701171875L168.94268798828125,147.66668701171875C170.8544921875,147.66668701171875,172.40625,149.21844482421875,172.40625,151.13018798828125C172.40625,153.31640625,174.1783447265625,155.08856201171875,176.36456298828125,155.08856201171875C178.55078125,155.08856201171875,180.32293701171875,153.31640625,180.32293701171875,151.13018798828125C180.32293701171875,144.84503173828125,175.22784423828125,139.75,168.94268798828125,139.75Z" style="fill: rgb(111, 206, 176); fill-opacity: 1;"/></g></g></g><g id="shape-d010c6a7-464c-806c-8007-b41b4a159a23" width="20" height="20" rx="0" ry="0" style="fill: rgb(0, 0, 0);"><g id="shape-d010c6a7-464c-806c-8007-b41b4a159a24" style="display: none;"><g class="fills" id="fills-d010c6a7-464c-806c-8007-b41b4a159a24"><rect width="335" height="335" x="-53" transform="matrix(1.000000, 0.000000, 0.000000, 1.000000, 0.000000, 0.000000)" style="fill: rgb(0, 0, 0); fill-opacity: 0;" ry="0" fill="none" rx="0" y="-18"/></g></g><g id="shape-d010c6a7-464c-806c-8007-b41b4a159a25"><g class="fills" id="fills-d010c6a7-464c-806c-8007-b41b4a159a25"><path d="M47.5,65.75C47.5,56.49896240234375,54.99896240234375,49,64.25,49L164.75,49C174.00103759765625,49,181.5,56.49896240234375,181.5,65.75L181.5,82.5C181.5,91.75103759765625,174.00103759765625,99.25,164.75,99.25L64.25,99.25C54.99896240234375,99.25,47.5,91.75103759765625,47.5,82.5ZM64.25,65.75L64.25,82.5L164.75,82.5L164.75,65.75ZM14,49L14,250C14,268.50115966796875,28.99884033203125,283.5,47.5,283.5L206.625,283.5C211.25006103515625,283.5,215,279.75006103515625,215,275.125C215,270.49993896484375,211.25006103515625,266.75,206.625,266.75L47.5,266.75C38.2491455078125,266.75,30.75,259.25103759765625,30.75,250L198.25,250C207.50103759765625,250,215,242.50103759765625,215,233.25L215,49C215,30.49884033203125,200.00115966796875,15.5,181.5,15.5L47.5,15.5C28.99884033203125,15.5,14,30.49884033203125,14,49M181.5,32.25C190.7508544921875,32.25,198.25,39.74896240234375,198.25,49L198.25,233.25L30.75,233.25L30.75,49C30.75,39.74896240234375,38.2491455078125,32.25,47.5,32.25Z" style="fill: rgb(111, 206, 176); fill-opacity: 1;"/></g></g></g><g id="shape-a3ff08ab-f7db-8085-8007-b562a7d9ac32" width="24" height="24" rx="0" ry="0" style="fill: rgb(0, 0, 0);"><g id="shape-a3ff08ab-f7db-8085-8007-b562a7da6222" style="display: none;"><g class="fills" id="fills-a3ff08ab-f7db-8085-8007-b562a7da6222"><rect width="94.99999999999977" height="95" x="22" transform="matrix(1.000000, 0.000000, 0.000000, 1.000000, 0.000000, 0.000000)" style="fill: rgb(111, 206, 176); fill-opacity: 1;" ry="0" fill="none" rx="0" y="116"/></g></g><g id="shape-a3ff08ab-f7db-8085-8007-b562a7da9003"><g class="fills" id="fills-a3ff08ab-f7db-8085-8007-b562a7da9003"><path d="M57.625,139.75C55.4388427734375,139.75,53.6666259765625,141.5220947265625,53.6666259765625,143.7083740234375L53.6666259765625,181.3125C53.6666259765625,183.4986572265625,55.4388427734375,185.2708740234375,57.625,185.2708740234375L85.3333740234375,185.2708740234375C87.51953125,185.2708740234375,89.2916259765625,183.4986572265625,89.2916259765625,181.3125C89.2916259765625,179.1263427734375,87.51953125,177.3541259765625,85.3333740234375,177.3541259765625L61.5833740234375,177.3541259765625L61.5833740234375,143.7083740234375C61.5833740234375,141.5220947265625,59.8111572265625,139.75,57.625,139.75" style="fill: rgb(111, 206, 176); fill-opacity: 1;"/></g></g></g><g id="shape-a3ff08ab-f7db-8085-8007-b562ba4b12eb" width="24" height="24" rx="0" ry="0" style="fill: rgb(0, 0, 0);"><g id="shape-a3ff08ab-f7db-8085-8007-b562ba4b4d8f" style="display: none;"><g class="fills" id="fills-a3ff08ab-f7db-8085-8007-b562ba4b4d8f"><rect width="95" height="95" x="69" transform="matrix(1.000000, 0.000000, 0.000000, 1.000000, 0.000000, 0.000000)" style="fill: rgb(111, 206, 176); fill-opacity: 1;" ry="0" fill="none" rx="0" y="116"/></g></g><g id="shape-a3ff08ab-f7db-8085-8007-b562ba4ba759"><g class="fills" id="fills-a3ff08ab-f7db-8085-8007-b562ba4ba759"><path d="M110.5625,139.75C102.9111328125,139.75,96.70831298828125,145.9527587890625,96.70831298828125,153.60418701171875L96.70831298828125,173.39581298828125C96.70831298828125,181.0472412109375,102.9111328125,187.25,110.5625,187.25L120.45831298828125,187.25C128.1097412109375,187.25,134.3125,181.0472412109375,134.3125,173.39581298828125L134.3125,153.60418701171875C134.3125,145.9527587890625,128.1097412109375,139.75,120.45831298828125,139.75ZM104.625,153.60418701171875C104.625,150.324951171875,107.2833251953125,147.66668701171875,110.5625,147.66668701171875L120.45831298828125,147.66668701171875C123.737548828125,147.66668701171875,126.39581298828125,150.324951171875,126.39581298828125,153.60418701171875L126.39581298828125,173.39581298828125C126.39581298828125,176.675048828125,123.737548828125,179.33331298828125,120.45831298828125,179.33331298828125L110.5625,179.33331298828125C107.2833251953125,179.33331298828125,104.625,176.675048828125,104.625,173.39581298828125Z" style="fill: rgb(111, 206, 176); fill-opacity: 1;"/></g></g></g></g></g></g></g></g></g></svg>