<svg width="224" xmlns="http://www.w3.org/2000/svg" height="300" id="screenshot-d010c6a7-464c-806c-8007-b41b34da4832" viewBox="0 0 224 300" xmlns:xlink="http://www.w3.org/1999/xlink" fill="none" version="1.1"><g id="shape-d010c6a7-464c-806c-8007-b41b34da4832"><defs><clipPath id="frame-clip-d010c6a7-464c-806c-8007-b41b34da4832-render-1" class="frame-clip frame-clip-def"><rect rx="0" ry="0" x="0" y="0" width="224" height="300" transform="matrix(1.000000, 0.000000, 0.000000, 1.000000, 0.000000, 0.000000)"/></clipPath></defs><g class="frame-container-wrapper"><g class="frame-container-blur"><g class="frame-container-shadows"><g clip-path="url(#frame-clip-d010c6a7-464c-806c-8007-b41b34da4832-render-1)" fill="none"><g class="fills" id="fills-d010c6a7-464c-806c-8007-b41b34da4832"><rect width="224" height="300" class="frame-background" x="0" transform="matrix(1.000000, 0.000000, 0.000000, 1.000000, 0.000000, 0.000000)" style="fill: rgb(255, 255, 255); fill-opacity: 0;" ry="0" rx="0" y="0"/></g><g class="frame-children"><g id="shape-d010c6a7-464c-806c-8007-b41b4a159a23" width="20" height="20" rx="0" ry="0" style="fill: rgb(0, 0, 0);"><g id="shape-d010c6a7-464c-806c-8007-b41b4a159a24" style="display: none;"><g class="fills" id="fills-d010c6a7-464c-806c-8007-b41b4a159a24"><rect width="335" height="335" x="-53" transform="matrix(1.000000, 0.000000, 0.000000, 1.000000, 0.000000, 0.000000)" style="fill: rgb(0, 0, 0); fill-opacity: 0;" ry="0" fill="none" rx="0" y="-18"/></g></g><g id="shape-d010c6a7-464c-806c-8007-b41b4a159a25"><g class="fills" id="fills-d010c6a7-464c-806c-8007-b41b4a159a25"><path d="M47.5,65.75C47.5,56.49896240234375,54.99896240234375,49,64.25,49L164.75,49C174.00103759765625,49,181.5,56.49896240234375,181.5,65.75L181.5,82.5C181.5,91.75103759765625,174.00103759765625,99.25,164.75,99.25L64.25,99.25C54.99896240234375,99.25,47.5,91.75103759765625,47.5,82.5ZM64.25,65.75L64.25,82.5L164.75,82.5L164.75,65.75ZM14,49L14,250C14,268.50115966796875,28.99884033203125,283.5,47.5,283.5L206.625,283.5C211.25006103515625,283.5,215,279.75006103515625,215,275.125C215,270.49993896484375,211.25006103515625,266.75,206.625,266.75L47.5,266.75C38.2491455078125,266.75,30.75,259.25103759765625,30.75,250L198.25,250C207.50103759765625,250,215,242.50103759765625,215,233.25L215,49C215,30.49884033203125,200.00115966796875,15.5,181.5,15.5L47.5,15.5C28.99884033203125,15.5,14,30.49884033203125,14,49M181.5,32.25C190.7508544921875,32.25,198.25,39.74896240234375,198.25,49L198.25,233.25L30.75,233.25L30.75,49C30.75,39.74896240234375,38.2491455078125,32.25,47.5,32.25Z" style="fill: rgb(111, 206, 176); fill-opacity: 1;"/></g></g></g></g></g></g></g></g></g></svg>