<svg width="224" xmlns="http://www.w3.org/2000/svg" height="300" id="screenshot-a3ff08ab-f7db-8085-8007-b560a1ab9853" viewBox="0 0 224 300" xmlns:xlink="http://www.w3.org/1999/xlink" fill="none" version="1.1"><g id="shape-a3ff08ab-f7db-8085-8007-b560a1ab9853"><defs><clipPath id="frame-clip-a3ff08ab-f7db-8085-8007-b560a1ab9853-render-1" class="frame-clip frame-clip-def"><rect rx="0" ry="0" x="0" y="0" width="224" height="300" transform="matrix(1.000000, 0.000000, 0.000000, 1.000000, 0.000000, 0.000000)"/></clipPath></defs><g class="frame-container-wrapper"><g class="frame-container-blur"><g class="frame-container-shadows"><g clip-path="url(#frame-clip-a3ff08ab-f7db-8085-8007-b560a1ab9853-render-1)" fill="none"><g class="fills" id="fills-a3ff08ab-f7db-8085-8007-b560a1ab9853"><rect width="224" height="300" class="frame-background" x="0" transform="matrix(1.000000, 0.000000, 0.000000, 1.000000, 0.000000, 0.000000)" style="fill: rgb(255, 255, 255); fill-opacity: 0;" ry="0" rx="0" y="0"/></g><g class="frame-children"><g id="shape-a3ff08ab-f7db-8085-8007-b560b2a86d36" width="16" height="16" rx="0" ry="0" style="fill: rgb(0, 0, 0);"><g id="shape-a3ff08ab-f7db-8085-8007-b560b2a947af" style="display: none;"><g class="fills" id="fills-a3ff08ab-f7db-8085-8007-b560b2a947af"><rect width="233" height="233" x="-1" transform="matrix(1.000000, 0.000000, 0.000000, 1.000000, 0.000000, 0.000000)" style="fill: rgb(111, 206, 176); fill-opacity: 1;" ry="0" fill="none" rx="0" y="32"/></g></g><g id="shape-a3ff08ab-f7db-8085-8007-b560b2a9c694"><g class="fills" id="fills-a3ff08ab-f7db-8085-8007-b560b2a9c694"><path d="M156.33251953125,46.373199462890625C172.146484375,43.42230224609375,187.356201171875,53.84735107421875,190.306884765625,69.6585693359375L217.0146484375,212.8082275390625C219.751708984375,227.4862060546875,210.94921875,241.85675048828125,196.62841796875,246.0831298828125L193.730712890625,246.78265380859375L179.413818359375,249.4473876953125L176.4736328125,249.85528564453125C162.71435546875,250.98406982421875,150.0537109375,242.30029296875,146.154052734375,229.05950927734375L145.4248046875,226.1761474609375L137.386474609375,183.02734375L137.386474609375,221.3125C137.389892578125,236.2501220703125,126.09130859375,248.76824951171875,111.233642578125,250.291748046875L108.261474609375,250.4375L42.730224609375,250.4375L39.76171875,250.291748046875C26.027099609375,248.87933349609375,15.16943359375,238.01788330078125,13.765380859375,224.28302001953125L13.605224609375,221.3125L13.605224609375,75.6875C13.605224609375,59.60247802734375,26.64599609375,46.5625,42.730224609375,46.5625L108.261474609375,46.5625C116.32861328125,46.5625,123.627685546875,49.838714599609375,128.89599609375,55.1396484375C132.68603515625,52.042083740234375,137.194580078125,49.94891357421875,142.0048828125,49.052978515625ZM86.417724609375,228.59375L108.261474609375,228.59375C112.2822265625,228.59375,115.542724609375,225.33355712890625,115.542724609375,221.3125L115.542724609375,75.6875C115.542724609375,71.66650390625,112.2822265625,68.40625,108.261474609375,68.40625L86.417724609375,68.40625ZM42.730224609375,68.40625C38.708984375,68.40625,35.448974609375,71.66650390625,35.448974609375,75.6875L35.448974609375,221.3125C35.448974609375,225.33355712890625,38.708984375,228.59375,42.730224609375,228.59375L64.573974609375,228.59375L64.573974609375,68.40625ZM147.536865234375,118.471923828125L166.90576171875,222.15692138671875C167.641845703125,226.10955810546875,171.4423828125,228.71722412109375,175.396240234375,227.98223876953125L189.7099609375,225.302490234375C193.6630859375,224.56646728515625,196.26953125,220.76593017578125,195.536865234375,216.81243896484375L176.181884765625,113.12738037109375ZM160.30712890625,67.85247802734375L146.00830078125,70.50302124023438C144.106201171875,70.85671997070312,142.424560546875,71.95175170898438,141.33251953125,73.54721069335938C140.238037109375,75.14266967773438,139.8251953125,77.10693359375,140.1845703125,79.00814819335938L143.533447265625,97.0068359375L172.1787109375,91.66238403320312L168.8291015625,73.66366577148438C168.473876953125,71.75885009765625,167.37890625,70.07373046875,165.779296875,68.98135375976562C164.17919921875,67.88803100585938,162.213134765625,67.47653198242188,160.30712890625,67.8382568359375" style="fill: rgb(111, 206, 176); fill-opacity: 1;"/></g></g><g id="shape-a3ff08ab-f7db-8085-8007-b560b2a9c695"><g class="fills" id="fills-a3ff08ab-f7db-8085-8007-b560b2a9c695"><path d="M156.318603515625,46.373199462890625C172.12841796875,43.42230224609375,187.342041015625,53.84735107421875,190.292724609375,69.6585693359375L217.0146484375,212.8082275390625C219.751708984375,227.4862060546875,210.94921875,241.85675048828125,196.62841796875,246.0831298828125L193.716552734375,246.78265380859375L179.413818359375,249.46160888671875L176.458984375,249.85528564453125C162.7001953125,250.98406982421875,150.039794921875,242.30029296875,146.139404296875,229.05950927734375L145.439453125,226.1761474609375L137.37255859375,182.969482421875L137.37255859375,221.3125C137.3759765625,236.2501220703125,126.0771484375,248.76824951171875,111.219482421875,250.291748046875L108.24755859375,250.4375L42.71630859375,250.4375L39.74755859375,250.291748046875C26.013427734375,248.87933349609375,15.1552734375,238.01788330078125,13.751220703125,224.28302001953125L13.59130859375,221.3125L13.59130859375,75.6875C13.59130859375,59.60247802734375,26.6318359375,46.5625,42.71630859375,46.5625L108.24755859375,46.5625C116.314453125,46.5625,123.60986328125,49.838714599609375,128.882080078125,55.1396484375C132.55126953125,52.12567138671875,137.00927734375,49.970245361328125,141.990234375,49.02362060546875ZM86.40380859375,228.59375L108.24755859375,228.59375C112.268310546875,228.59375,115.52880859375,225.33355712890625,115.52880859375,221.3125L115.52880859375,75.6875C115.52880859375,71.66650390625,112.268310546875,68.40625,108.24755859375,68.40625L86.40380859375,68.40625ZM42.71630859375,68.40625C38.69482421875,68.40625,35.43505859375,71.66650390625,35.43505859375,75.6875L35.43505859375,221.3125C35.43505859375,225.33355712890625,38.69482421875,228.59375,42.71630859375,228.59375L64.56005859375,228.59375L64.56005859375,68.40625ZM147.536865234375,118.471923828125L166.90576171875,222.15692138671875C167.641845703125,226.10955810546875,171.4423828125,228.71722412109375,175.396240234375,227.98223876953125L189.7099609375,225.302490234375C193.6630859375,224.56646728515625,196.26953125,220.76593017578125,195.536865234375,216.81243896484375L176.181884765625,113.12738037109375ZM160.32177734375,67.8382568359375L146.00830078125,70.50302124023438C144.106201171875,70.85671997070312,142.424560546875,71.95175170898438,141.33251953125,73.54721069335938C140.238037109375,75.14266967773438,139.8251953125,77.10693359375,140.1845703125,79.00814819335938L143.533447265625,97.0068359375L172.1787109375,91.66238403320312L168.8291015625,73.66366577148438C168.473876953125,71.762451171875,167.37890625,70.07992553710938,165.78271484375,68.98663330078125C164.18994140625,67.894287109375,162.223876953125,67.48101806640625,160.32177734375,67.8382568359375" fill-rule="evenodd" clip-rule="evenodd" style="fill: rgb(111, 206, 176); fill-opacity: 1;"/></g></g></g></g></g></g></g></g></g></svg>