<svg width="224" xmlns="http://www.w3.org/2000/svg" height="300" id="screenshot-a3ff08ab-f7db-8085-8007-b535688b55b4" viewBox="0 0 224 300" xmlns:xlink="http://www.w3.org/1999/xlink" fill="none" version="1.1"><g id="shape-a3ff08ab-f7db-8085-8007-b535688b55b4"><defs><clipPath id="frame-clip-a3ff08ab-f7db-8085-8007-b535688b55b4-render-1" class="frame-clip frame-clip-def"><rect rx="0" ry="0" x="0" y="0" width="224" height="300" transform="matrix(1.000000, 0.000000, 0.000000, 1.000000, 0.000000, 0.000000)"/></clipPath></defs><g class="frame-container-wrapper"><g class="frame-container-blur"><g class="frame-container-shadows"><g clip-path="url(#frame-clip-a3ff08ab-f7db-8085-8007-b535688b55b4-render-1)" fill="none"><g class="fills" id="fills-a3ff08ab-f7db-8085-8007-b535688b55b4"><rect width="224" height="300" class="frame-background" x="0" transform="matrix(1.000000, 0.000000, 0.000000, 1.000000, 0.000000, 0.000000)" style="fill: rgb(255, 255, 255); fill-opacity: 0;" ry="0" rx="0" y="0"/></g><g class="frame-children"><g id="shape-a3ff08ab-f7db-8085-8007-b53596547b40" width="24" height="24" rx="0" ry="0" style="fill: rgb(0, 0, 0);"><g id="shape-a3ff08ab-f7db-8085-8007-b5359655267a" style="display: none;"><g class="fills" id="fills-a3ff08ab-f7db-8085-8007-b5359655267a"><rect width="329" height="329" x="-47" transform="matrix(1.000000, 0.000000, 0.000000, 1.000000, 0.000000, 0.000000)" style="fill: rgb(52, 191, 154); fill-opacity: 1;" ry="0" fill="none" rx="0" y="-22"/></g></g><g id="shape-a3ff08ab-f7db-8085-8007-b535965565ae"><g class="fills" id="fills-a3ff08ab-f7db-8085-8007-b535965565ae"><path d="M78.705810546875,22.55206298828125L170.0023193359375,22.55206298828125C177.3367919921875,22.55206298828125,183.437744140625,22.55206298828125,188.4415283203125,22.963714599609375C193.650634765625,23.37451171875,198.5302734375,24.306610107421875,203.150390625,26.6644287109375C210.2437744140625,30.2789306640625,216.011962890625,36.047119140625,219.62646484375,43.142181396484375C221.984375,47.7615966796875,222.9161376953125,52.641937255859375,223.327880859375,57.8511962890625C223.739501953125,62.85467529296875,223.739501953125,68.95492553710938,223.739501953125,76.28857421875L223.739501953125,222.419921875C223.739501953125,229.75347900390625,223.739501953125,235.85382080078125,223.327880859375,240.857177734375C222.9161376953125,246.06634521484375,221.984375,250.9466552734375,219.62646484375,255.56622314453125C216.0167236328125,262.65869140625,210.2537841796875,268.4268798828125,203.1636962890625,272.04388427734375C198.5302734375,274.40179443359375,193.650634765625,275.33367919921875,188.4415283203125,275.7445068359375C183.437744140625,276.15625,177.3367919921875,276.15625,170.0023193359375,276.15625L78.705810546875,276.15625L74.1676025390625,276.1971435546875C64.517578125,276.3067626953125,54.1541748046875,276.43072509765625,45.55810546875,272.04388427734375C38.468017578125,268.43609619140625,32.699951171875,262.67803955078125,29.0821533203125,255.59375C26.72412109375,250.96026611328125,25.792236328125,246.0806884765625,25.3802490234375,240.87127685546875C25.1478271484375,237.7227783203125,25.0238037109375,234.56866455078125,25.0103759765625,231.41259765625C14.2991943359375,230.0872802734375,5.36181640625,222.60137939453125,2.178955078125,212.2891845703125C-1.0037841796875,201.97698974609375,2.15869140625,190.75701904296875,10.2598876953125,183.625C4.3592529296875,178.41998291015625,0.979248046875,170.9306640625,0.979248046875,163.0625C0.979248046875,154.87884521484375,4.5701904296875,147.531005859375,10.2598876953125,142.5C4.3592529296875,137.29498291015625,0.979248046875,129.8057861328125,0.979248046875,121.9375C0.979248046875,113.75384521484375,4.5701904296875,106.3927001953125,10.2598876953125,101.375C2.046630859375,94.1358642578125,-1.070556640625,82.70584106445312,2.326171875,72.29916381835938C5.7232666015625,61.892364501953125,14.985595703125,54.504486083984375,25.8873291015625,53.505401611328125C26.436279296875,49.900177001953125,27.3953857421875,46.4454345703125,29.0821533203125,43.142181396484375C32.6966552734375,36.047119140625,38.46435546875,30.2789306640625,45.55810546875,26.6644287109375C50.17822265625,24.306610107421875,55.0577392578125,23.37451171875,60.26708984375,22.963714599609375C65.270263671875,22.55206298828125,71.371826171875,22.55206298828125,78.705810546875,22.55206298828125M24.96875,195.82550048828125L24.96875,190.904296875C18.9095458984375,192.46209716796875,14.6741943359375,197.9249267578125,14.6741943359375,204.18084716796875C14.6741943359375,210.43670654296875,18.9095458984375,215.89959716796875,24.96875,217.45733642578125ZM45.874267578125,211.75445556640625C46.188720703125,215.702880859375,46.7645263671875,217.58050537109375,47.3956298828125,218.81463623046875L47.4908447265625,219.0062255859375C48.2874755859375,220.496337890625,49.2647705078125,221.83905029296875,50.42578125,223.0364990234375C53.4281005859375,226.0250244140625,57.4156494140625,227.46429443359375,61.940185546875,227.83392333984375C65.99853515625,228.1636962890625,71.26123046875,228.1771240234375,79.1158447265625,228.1771240234375L169.59228515625,228.1771240234375C177.43212890625,228.1771240234375,182.7099609375,228.1771240234375,186.7547607421875,227.83392333984375C191.3062744140625,227.46429443359375,195.2803955078125,226.0250244140625,198.2691650390625,223.0364990234375C199.4571533203125,221.83905029296875,200.4395751953125,220.496337890625,201.217529296875,219.0062255859375L201.31298828125,218.81463623046875L201.764892578125,217.74530029296875C202.21826171875,216.5111083984375,202.588134765625,214.715576171875,202.8341064453125,211.75445556640625L202.9444580078125,210.17816162109375C203.177001953125,206.33953857421875,203.177001953125,201.4599609375,203.177001953125,194.591552734375L203.177001953125,76.7001953125C203.177001953125,68.8587646484375,203.177001953125,63.580902099609375,202.8341064453125,59.523773193359375C202.5196533203125,55.588836669921875,201.9439697265625,53.7113037109375,201.31298828125,52.47711181640625C199.669677734375,49.24755859375,197.0443115234375,46.62286376953125,193.814453125,44.978729248046875C192.5810546875,44.348663330078125,190.7020263671875,43.772186279296875,186.7547607421875,43.45758056640625C182.7099609375,43.12799072265625,177.43212890625,43.11456298828125,169.59228515625,43.11456298828125L79.1158447265625,43.11456298828125C71.2760009765625,43.11456298828125,65.99853515625,43.11456298828125,61.940185546875,43.45758056640625C58.0064697265625,43.772186279296875,56.126953125,44.348663330078125,54.8939208984375,44.978729248046875C51.6641845703125,46.62286376953125,49.03857421875,49.24755859375,47.3956298828125,52.47711181640625C46.7645263671875,53.7113037109375,46.188720703125,55.588836669921875,45.874267578125,59.523773193359375L45.86083984375,59.67437744140625C51.933837890625,64.70541381835938,55.8125,72.300048828125,55.8125,80.8125C55.8125,83.26156616210938,54.505615234375,85.52389526367188,52.385498046875,86.7479248046875C50.26513671875,87.97283935546875,47.6514892578125,87.97283935546875,45.53125,86.7479248046875L45.53125,100.552490234375C51.79638671875,105.5701904296875,55.8125,113.30120849609375,55.8125,121.95086669921875C55.8125,124.39990234375,54.505615234375,126.66229248046875,52.385498046875,127.88720703125C50.26513671875,129.1112060546875,47.6514892578125,129.1112060546875,45.53125,127.88720703125L45.53125,141.67742919921875C51.79638671875,146.6951904296875,55.8125,154.42620849609375,55.8125,163.075927734375C55.8125,165.52496337890625,54.505615234375,167.78729248046875,52.385498046875,169.01220703125C50.26513671875,170.2362060546875,47.6514892578125,170.2362060546875,45.53125,169.01220703125L45.53125,182.80242919921875C51.79638671875,187.8201904296875,55.8125,195.55120849609375,55.8125,204.200927734375C55.81103515625,206.601318359375,54.5526123046875,208.82611083984375,52.49755859375,210.06524658203125C50.442626953125,211.30523681640625,47.887451171875,211.37890625,45.763916015625,210.26031494140625ZM46.998779296875,245.3125C48.369384765625,248.9454345703125,51.480224609375,251.98846435546875,54.8939208984375,253.72967529296875C56.126953125,254.359619140625,58.0064697265625,254.93621826171875,61.940185546875,255.250732421875C65.99853515625,255.580322265625,71.26123046875,255.59375,79.1158447265625,255.59375L169.59228515625,255.59375C177.43212890625,255.59375,182.7099609375,255.59375,186.7547607421875,255.250732421875C190.7020263671875,254.93621826171875,192.5810546875,254.359619140625,193.814453125,253.72967529296875C197.377197265625,251.9691162109375,200.181884765625,248.97979736328125,201.7095947265625,245.3125C200.4595947265625,245.87890625,199.166015625,246.35174560546875,197.843994140625,246.72479248046875C194.82861328125,247.6016845703125,191.6893310546875,248.06768798828125,188.4415283203125,248.3280029296875C183.7525634765625,248.71197509765625,178.0914306640625,248.7396240234375,171.37451171875,248.7396240234375L77.333740234375,248.7396240234375C71.316162109375,248.82244873046875,65.298828125,248.657470703125,59.2947998046875,248.24591064453125C55.06640625,247.930419921875,50.914306640625,246.93975830078125,46.998779296875,245.3125M14.6875,80.8125C14.682373046875,87.0675048828125,18.9127197265625,92.53204345703125,24.96875,94.095703125L24.96875,76.27508544921875C24.96875,73.1492919921875,24.97705078125,70.23428344726562,24.99560546875,67.52920532226562C18.9296875,69.08212280273438,14.68603515625,74.54983520507812,14.6875,80.8125M14.6875,121.9375C14.682373046875,128.1925048828125,18.9127197265625,133.65704345703125,24.96875,135.220703125L24.96875,108.66754150390625C18.917724609375,110.23052978515625,14.68896484375,115.6875,14.6875,121.9375M14.6875,163.0625C14.682373046875,169.3175048828125,18.9127197265625,174.7821044921875,24.96875,176.345703125L24.96875,149.79266357421875C18.917724609375,151.35552978515625,14.68896484375,156.8125,14.6875,163.0625" style="fill: rgb(52, 191, 154); fill-opacity: 1;"/></g></g><g id="shape-a3ff08ab-f7db-8085-8007-b5359655ebb0"><g class="fills" id="fills-a3ff08ab-f7db-8085-8007-b5359655ebb0"><path d="M96.636474609375,63.67706298828125L152.0718994140625,63.67706298828125C155.00537109375,63.67706298828125,157.6929931640625,63.67706298828125,159.96875,63.827667236328125C162.408447265625,63.9925537109375,165.0810546875,64.37655639648438,167.8101806640625,65.500244140625C173.6905517578125,67.94003295898438,178.364013671875,72.61456298828125,180.7906494140625,78.48236083984375C181.9151611328125,81.2098388671875,182.2998046875,83.88320922851562,182.4637451171875,86.322998046875C182.614501953125,88.5853271484375,182.614501953125,91.28533935546875,182.614501953125,94.21954345703125L182.614501953125,94.82196044921875C182.614501953125,97.75640869140625,182.614501953125,100.44287109375,182.4637451171875,102.71875C182.2998046875,105.1585693359375,181.9151611328125,107.83172607421875,180.7906494140625,110.559326171875C178.3558349609375,116.43707275390625,173.6868896484375,121.106689453125,167.8101806640625,123.54144287109375C165.0810546875,124.6651611328125,162.408447265625,125.04925537109375,159.96875,125.21392822265625C157.7064208984375,125.36456298828125,155.00537109375,125.36456298828125,152.0718994140625,125.36456298828125L96.636474609375,125.36456298828125C93.702880859375,125.36456298828125,91.015380859375,125.36456298828125,88.739501953125,125.21392822265625C86.0523681640625,125.087646484375,83.4031982421875,124.52294921875,80.8983154296875,123.54144287109375C75.021240234375,121.106689453125,70.352294921875,116.43707275390625,67.91796875,110.559326171875C66.9356689453125,108.0543212890625,66.37158203125,105.40625,66.2445068359375,102.71875C66.09375,100.45623779296875,66.09375,97.75640869140625,66.09375,94.82196044921875L66.09375,94.21954345703125C66.09375,91.28533935546875,66.09375,88.5987548828125,66.2445068359375,86.322998046875C66.408203125,83.88320922851562,66.79345703125,81.2098388671875,67.91796875,78.48236083984375C70.352294921875,72.6046142578125,75.021240234375,67.93505859375,80.8983154296875,65.500244140625C83.627197265625,64.37655639648438,86.2999267578125,63.9925537109375,88.739501953125,63.827667236328125C91.001953125,63.67706298828125,93.702880859375,63.67706298828125,96.636474609375,63.67706298828125M88.7261962890625,84.51409912109375C87.9244384765625,84.86300659179688,87.287109375,85.50558471679688,86.9442138671875,86.3095703125C86.8603515625,86.77642822265625,86.7999267578125,87.2484130859375,86.766845703125,87.72198486328125C86.6595458984375,89.98602294921875,86.6229248046875,92.25341796875,86.65625,94.52081298828125C86.65625,97.8516845703125,86.65625,99.83966064453125,86.766845703125,101.3197021484375C86.8201904296875,102.23846435546875,86.90234375,102.62249755859375,86.9305419921875,102.7320556640625C87.2803955078125,103.5335693359375,87.9229736328125,104.171142578125,88.7261962890625,104.51434326171875C89.1932373046875,104.5980224609375,89.6650390625,104.6573486328125,90.1385498046875,104.6925048828125C91.6192626953125,104.80206298828125,93.6055908203125,104.80206298828125,96.9375,104.80206298828125L151.770751953125,104.80206298828125C155.1025390625,104.80206298828125,157.0889892578125,104.80206298828125,158.5699462890625,104.6925048828125C159.0435791015625,104.662353515625,159.515380859375,104.607177734375,159.982177734375,104.52764892578125C160.7838134765625,104.17877197265625,161.42138671875,103.53619384765625,161.764404296875,102.7320556640625C161.8477783203125,102.26531982421875,161.9083251953125,101.79339599609375,161.94140625,101.3197021484375C162.052001953125,99.83966064453125,162.052001953125,97.8516845703125,162.052001953125,94.52081298828125C162.052001953125,91.19000244140625,162.052001953125,89.201904296875,161.94140625,87.72198486328125C161.911376953125,87.2484130859375,161.858154296875,86.77725219726562,161.77783203125,86.3095703125C161.427978515625,85.50802612304688,160.785400390625,84.87054443359375,159.982177734375,84.52740478515625C159.515380859375,84.44375610351562,159.0435791015625,84.38433837890625,158.5699462890625,84.34918212890625C156.3055419921875,84.24212646484375,154.038330078125,84.20611572265625,151.770751953125,84.23956298828125L96.9375,84.23956298828125C93.6055908203125,84.23956298828125,91.6192626953125,84.23956298828125,90.1385498046875,84.34918212890625C89.6650390625,84.37930297851562,89.1932373046875,84.43453979492188,88.7261962890625,84.51409912109375" style="fill: rgb(52, 191, 154); fill-opacity: 1;"/></g></g></g></g></g></g></g></g></g></svg>