<svg width="224" xmlns="http://www.w3.org/2000/svg" height="300" id="screenshot-a3ff08ab-f7db-8085-8007-b53f635df447" viewBox="0 0 224 300" xmlns:xlink="http://www.w3.org/1999/xlink" fill="none" version="1.1"><g id="shape-a3ff08ab-f7db-8085-8007-b53f635df447"><defs><clipPath id="frame-clip-a3ff08ab-f7db-8085-8007-b53f635df447-render-1" class="frame-clip frame-clip-def"><rect rx="0" ry="0" x="0" y="0" width="224" height="300" transform="matrix(1.000000, 0.000000, 0.000000, 1.000000, 0.000000, 0.000000)"/></clipPath></defs><g class="frame-container-wrapper"><g class="frame-container-blur"><g class="frame-container-shadows"><g clip-path="url(#frame-clip-a3ff08ab-f7db-8085-8007-b53f635df447-render-1)" fill="none"><g class="fills" id="fills-a3ff08ab-f7db-8085-8007-b53f635df447"><rect width="224" height="300" class="frame-background" x="0" transform="matrix(1.000000, 0.000000, 0.000000, 1.000000, 0.000000, 0.000000)" style="fill: rgb(255, 255, 255); fill-opacity: 0;" ry="0" rx="0" y="0"/></g><g class="frame-children"><g id="shape-a3ff08ab-f7db-8085-8007-b53fb42202d6" width="24" height="24" rx="0" ry="0" style="fill: rgb(0, 0, 0);"><g id="shape-a3ff08ab-f7db-8085-8007-b53fb422b29a" style="display: none;"><g class="fills" id="fills-a3ff08ab-f7db-8085-8007-b53fb422b29a"><rect width="250" height="250" x="-13" transform="matrix(1.000000, 0.000000, 0.000000, 1.000000, 0.000000, 0.000000)" style="fill: none;" ry="0" fill="none" rx="0" y="26"/></g></g><g id="shape-a3ff08ab-f7db-8085-8007-b53fb422df01"><g class="fills" id="fills-a3ff08ab-f7db-8085-8007-b53fb422df01"><path d="M7.8333740234375,57.25L216.1666259765625,57.25M205.75,57.25L205.75,171.83331298828125C205.75,183.33905029296875,196.4229736328125,192.66668701171875,184.9166259765625,192.66668701171875L39.0833740234375,192.66668701171875C27.5770263671875,192.66668701171875,18.25,183.33905029296875,18.25,171.83331298828125L18.25,57.25M59.9166259765625,244.75L112,192.66668701171875L164.0833740234375,244.75" fill="none" stroke-linecap="round" stroke-linejoin="round" style="fill: none;"/></g><g fill="none" stroke-linecap="round" stroke-linejoin="round" id="strokes-6f3cdfdf-7149-80ab-8007-b54034c0f494-a3ff08ab-f7db-8085-8007-b53fb422df01" class="strokes"><g class="stroke-shape"><path d="M7.8333740234375,57.25L216.1666259765625,57.25M205.75,57.25L205.75,171.83331298828125C205.75,183.33905029296875,196.4229736328125,192.66668701171875,184.9166259765625,192.66668701171875L39.0833740234375,192.66668701171875C27.5770263671875,192.66668701171875,18.25,183.33905029296875,18.25,171.83331298828125L18.25,57.25M59.9166259765625,244.75L112,192.66668701171875L164.0833740234375,244.75" style="fill: none; stroke-width: 15; stroke: rgb(111, 206, 176); stroke-opacity: 1;"/></g></g></g></g></g></g></g></g></g></g></svg>